<svg xmlns="http://www.w3.org/2000/svg" width="32" height="32">
    <defs><filter id="shadow"><feDropShadow dx="1" dy="1" stdDeviation="0"/></filter></defs>
    <path fill="#fd2e3d" d="M2 24.57C-1.38 18.39-.45 12.12 3.82 7.3a15.16 15.16 0 0 1 18.2-3.12c-1 1.12-2.23 1.9-3.42 2.5C9.66 5.73 1.8 15.82 2 24.56z" filter="url(#shadow)"/>
    <path fill="#f76b1c" d="M3.17 27.5C1.03 20.1 7.87 7.08 17.72 7.3c6.32.14 6.57 10.1-1.26 17.92-6.68 6.67-11.7 7.76-13.29 2.28" filter="url(#shadow)"/>
    <path fill="#f76b1c" d="M19.38 6.84a15.5 15.5 0 0 0 4.86-4.36c.77.51 1.7 1.25 1.74 2.14.04.85-4.23 3.76-4.18 3.76a7 7 0 0 0-2.42-1.54" filter="url(#shadow)"/>
    <path fill="#feb702" d="M10.7 30.72q8.66 1.04 13.49-4.96c5.24-6.51 5.5-12.66.75-19l-2.8 2.1c3.5 6.06-2.42 16.84-11.44 21.86" filter="url(#shadow)"/>
    <path fill="#f76b1c" d="M24.56 2.02S25.6-.03 27.62 0C29.22.03 31 1.45 31 3.13c0 1.67-1.47 3.03-3.27 3.03-.7 0-1.7-.54-1.7-.54.98-.85.37-2.4-1.47-3.6" filter="url(#shadow)"/>
    <path fill="#fff" d="M14.08 9.87c.44-.45 1.09-.51 1.45-.15.36.35.29 1-.15 1.45-.45.44-1.1.51-1.46.15s-.29-1 .16-1.45m12.51-8.59c0-.35.33-.64.73-.64s.74.29.74.64-.33.64-.74.64-.73-.28-.73-.64"/>
</svg>